<svg xmlns="http://www.w3.org/2000/svg" viewBox="0 0 45.302 34.013"><defs><style>.a{fill:#4e4e4e;}</style></defs><g transform="translate(-31 -359)"><path class="a" d="M0,30.934V2.786A2.9,2.9,0,0,1,.88.733,2.787,2.787,0,0,1,2.786,0H19.059a1.665,1.665,0,0,1,1.173.44,1.971,1.971,0,0,1,.88,1.026l1.466,4.105H42.37a2.9,2.9,0,0,1,2.053.88A2.662,2.662,0,0,1,45.3,8.5V31.081a2.9,2.9,0,0,1-.88,2.053,2.662,2.662,0,0,1-2.053.88H2.786a2.9,2.9,0,0,1-2.053-.88A3.95,3.95,0,0,1,0,30.934Z" transform="translate(31 359)"/></g></svg>