<svg xmlns="http://www.w3.org/2000/svg" viewBox="0 0 20 20"><defs><style>.a{fill:none;}.b{fill:#fff;fill-rule:evenodd;}</style></defs><g transform="translate(-22 -339)"><rect class="a" width="20" height="20" transform="translate(22 339)"/><path class="b" d="M8.75,10a2.5,2.5,0,1,1-2.5,2.5A2.507,2.507,0,0,1,8.75,10Zm0-7.5A2.507,2.507,0,0,0,6.25,5h5A2.507,2.507,0,0,0,8.75,2.5ZM15,20H2.5A2.507,2.507,0,0,1,0,17.5V7.5A2.507,2.507,0,0,1,2.5,5H3.75a5,5,0,0,1,10,0H15a2.507,2.507,0,0,1,2.5,2.5v10A2.507,2.507,0,0,1,15,20Z" transform="translate(23.25 339)"/></g></svg>
