<svg xmlns="http://www.w3.org/2000/svg" viewBox="0 0 42.343 42.343"><defs><style>.a{fill:#4e4e4e;}</style></defs><path class="a" d="M14.82,42.343a13.352,13.352,0,0,1-9.88-4.234A13.632,13.632,0,0,1,0,27.523,14.159,14.159,0,0,1,1.059,22.23,12.2,12.2,0,0,1,3.529,18l7.057-7.057a8.5,8.5,0,0,1,6.351-2.47,9.64,9.64,0,0,1,6.7,2.823,9.06,9.06,0,0,1,2.823,7.057,8.5,8.5,0,0,1-2.47,6.351l-3.881,3.529a2.7,2.7,0,0,1-1.764.706,3.783,3.783,0,0,1-2.117-.706,5.015,5.015,0,0,1-.706-2.117,5.015,5.015,0,0,1,.706-2.117l3.881-3.881A2.134,2.134,0,0,0,21.171,18,4.31,4.31,0,0,0,19.76,14.82a4.112,4.112,0,0,0-2.47-.706,5.1,5.1,0,0,0-2.47.706L7.41,21.877a9.763,9.763,0,0,0-1.764,5.646,10.323,10.323,0,0,0,2.823,6.7A7.321,7.321,0,0,0,12,36.344a6.1,6.1,0,0,0,3.529.353c1.059-.353,2.117-.353,2.823-.706a7.382,7.382,0,0,0,2.117-1.411L34.58,20.466a7.739,7.739,0,0,0,2.47-6c0-2.47-1.059-4.587-3.176-6.7A15.713,15.713,0,0,0,29.64,5.646H26.464A7.472,7.472,0,0,0,23.994,6.7a4.475,4.475,0,0,1-2.117.353,2.344,2.344,0,0,1-1.764-1.411c-.353-.353-.353-1.059-.353-2.117a6.2,6.2,0,0,1,1.411-1.764A13.9,13.9,0,0,1,28.229,0,13.063,13.063,0,0,1,37.4,3.529c3.176,3.176,4.94,6.7,4.94,10.586a13.809,13.809,0,0,1-3.881,10.233L24.347,38.461A13.03,13.03,0,0,1,14.82,42.343Z"/></svg>