<svg xmlns="http://www.w3.org/2000/svg" viewBox="0 0 25 25">
  <defs>
    <style>
      .cls-1 {
        fill: #fff;
      }
    </style>
  </defs>
  <path id="Subtraction_1" data-name="Subtraction 1" class="cls-1" d="M-1979.8,1349a12.419,12.419,0,0,1-8.839-3.661,12.419,12.419,0,0,1-3.661-8.839,12.419,12.419,0,0,1,3.661-8.839A12.418,12.418,0,0,1-1979.8,1324a12.419,12.419,0,0,1,8.839,3.661,12.419,12.419,0,0,1,3.661,8.839,12.419,12.419,0,0,1-3.661,8.839A12.419,12.419,0,0,1-1979.8,1349Zm-1.2-12.189v5.3h1.514v-5.3h5.3V1335.3h-5.3V1330H-1981v5.3h-5.3v1.514Z" transform="translate(1992.298 -1324)"/>
</svg>
